<?xml version="1.0" encoding="UTF-8" standalone="no"?>
<svg width="36px" height="39px" viewBox="0 0 36 39" version="1.1" xmlns="http://www.w3.org/2000/svg" xmlns:xlink="http://www.w3.org/1999/xlink" xmlns:sketch="http://www.bohemiancoding.com/sketch/ns">
    <!-- Generator: Sketch 3.4.4 (17249) - http://www.bohemiancoding.com/sketch -->
    <title>Group</title>
    <desc>Created with Sketch.</desc>
    <defs></defs>
    <g id="Page-1" stroke="none" stroke-width="1" fill="none" fill-rule="evenodd" sketch:type="MSPage">
        <g id="Group" sketch:type="MSLayerGroup" transform="translate(1.000000, 2.000000)">
            <path d="M12.50332,36.3776 L0.63094,3.21746" id="Shape" stroke="#B91913" stroke-width="2" sketch:type="MSShapeGroup"></path>
            <path d="M1.46944,5.55902 C1.46944,5.55902 6.08002,0.56 14.08906,0.56 C18.96406,0.56 21.19174,3.73694 25.21498,3.73694 C29.23588,3.73694 33.09844,0.56 33.09844,0.56 L33.09844,21.20738 C33.09844,21.20738 30.1945,22.79624 26.74456,22.79624 C23.29618,22.79624 21.88906,21.20738 17.2153,21.20738 C12.78256,21.20738 8.6158,25.50986 8.6158,25.50986 L1.46944,5.55902 L1.46944,5.55902 Z" id="Shape" stroke="#B91913" stroke-width="2" sketch:type="MSShapeGroup"></path>
            <path d="M1.46944,5.55902 C1.46944,5.55902 3.8617,3.02558 7.0909,1.9835 L9.55882,8.32022 C9.55882,8.32022 6.37174,9.46682 3.76966,11.91212 L1.55134,5.79302" id="Shape" fill="#B91913" sketch:type="MSShapeGroup"></path>
            <path d="M9.55882,8.32022 L12.22018,15.15224 C12.22018,15.15224 14.31292,14.40812 15.75358,14.40812 C17.19424,14.40812 18.62242,14.6195 18.62242,14.6195 L16.69036,7.3538 C16.69036,7.3538 16.14436,7.27658 15.47122,7.27658 C12.24592,7.27658 9.55882,8.32022 9.55882,8.32022 L9.55882,8.32022 Z" id="Shape" fill="#B91913" sketch:type="MSShapeGroup"></path>
            <path d="M6.3616,19.10528 L8.6158,25.50908 C8.6158,25.50908 11.73346,22.52012 14.70292,21.67928 L12.22096,15.15224 C9.36148,16.2536 6.3616,19.10528 6.3616,19.10528 L6.3616,19.10528 Z" id="Shape" fill="#B91913" sketch:type="MSShapeGroup"></path>
            <path d="M14.90728,0.64658 L16.69114,7.35302 C18.13414,7.35302 22.14646,9.3194 22.14646,9.3194 L20.56462,2.39378 C19.65748,2.05448 17.28238,0.7589 14.90728,0.64658 L14.90728,0.64658 Z" id="Shape" fill="#B91913" sketch:type="MSShapeGroup"></path>
            <path d="M18.62242,14.61872 L20.45932,21.5225 C21.3844,21.5225 24.0364,22.65272 25.19002,22.65272 L23.63938,15.86516 C22.14646,15.47672 19.73002,14.77394 18.62242,14.61872 L18.62242,14.61872 Z" id="Shape" fill="#B91913" sketch:type="MSShapeGroup"></path>
            <path d="M22.14646,9.32018 L23.64016,15.86594 C23.64016,15.86594 25.13464,16.14206 26.16034,16.14206 C27.18526,16.14206 28.46368,15.90962 28.46368,15.90962 L27.97852,9.9161 C27.97852,9.9161 26.9887,10.22342 25.78906,10.22342 C23.9155,10.22342 22.14646,9.32018 22.14646,9.32018 L22.14646,9.32018 Z" id="Shape" fill="#B91913" sketch:type="MSShapeGroup"></path>
            <path d="M27.45436,3.42338 L27.9793,9.91532 C27.9793,9.91532 30.41992,9.30224 33.1,7.2758 L33.09844,0.56 C30.02134,2.91716 27.45436,3.42338 27.45436,3.42338 L27.45436,3.42338 Z" id="Shape" fill="#B91913" sketch:type="MSShapeGroup"></path>
            <path d="M28.46446,15.90962 C28.46446,15.90962 30.81538,15.4736 33.09844,14.1476 L33.09844,21.20738 C30.66718,22.37426 28.99486,22.58564 28.99486,22.58564 L28.46446,15.90962 L28.46446,15.90962 Z" id="Shape" fill="#B91913" sketch:type="MSShapeGroup"></path>
        </g>
    </g>
</svg>