<?xml version="1.0" encoding="UTF-8" standalone="no"?>
<svg width="360px" height="110px" viewBox="0 0 360 110" version="1.1" xmlns="http://www.w3.org/2000/svg" xmlns:xlink="http://www.w3.org/1999/xlink" xmlns:sketch="http://www.bohemiancoding.com/sketch/ns">
    <!-- Generator: Sketch 3.4.4 (17249) - http://www.bohemiancoding.com/sketch -->
    <title>main pomodoro copy 2</title>
    <desc>Created with Sketch.</desc>
    <defs>
        <filter x="-50%" y="-50%" width="200%" height="200%" filterUnits="objectBoundingBox" id="filter-1">
            <feOffset dx="0" dy="3" in="SourceAlpha" result="shadowOffsetInner1"></feOffset>
            <feGaussianBlur stdDeviation="0" in="shadowOffsetInner1" result="shadowBlurInner1"></feGaussianBlur>
            <feComposite in="shadowBlurInner1" in2="SourceAlpha" operator="arithmetic" k2="-1" k3="1" result="shadowInnerInner1"></feComposite>
            <feColorMatrix values="0 0 0 0 0.921568627   0 0 0 0 0.525490196   0 0 0 0 0.517647059  0 0 0 0.7 0" in="shadowInnerInner1" type="matrix" result="shadowMatrixInner1"></feColorMatrix>
            <feMerge>
                <feMergeNode in="SourceGraphic"></feMergeNode>
                <feMergeNode in="shadowMatrixInner1"></feMergeNode>
            </feMerge>
        </filter>
        <filter x="-50%" y="-50%" width="200%" height="200%" filterUnits="objectBoundingBox" id="filter-2">
            <feOffset dx="1" dy="3" in="SourceAlpha" result="shadowOffsetInner1"></feOffset>
            <feGaussianBlur stdDeviation="0" in="shadowOffsetInner1" result="shadowBlurInner1"></feGaussianBlur>
            <feComposite in="shadowBlurInner1" in2="SourceAlpha" operator="arithmetic" k2="-1" k3="1" result="shadowInnerInner1"></feComposite>
            <feColorMatrix values="0 0 0 0 0.921568627   0 0 0 0 0.525490196   0 0 0 0 0.517647059  0 0 0 0.7 0" in="shadowInnerInner1" type="matrix" result="shadowMatrixInner1"></feColorMatrix>
            <feMerge>
                <feMergeNode in="SourceGraphic"></feMergeNode>
                <feMergeNode in="shadowMatrixInner1"></feMergeNode>
            </feMerge>
        </filter>
        <filter x="-50%" y="-50%" width="200%" height="200%" filterUnits="objectBoundingBox" id="filter-3">
            <feOffset dx="0" dy="3" in="SourceAlpha" result="shadowOffsetInner1"></feOffset>
            <feGaussianBlur stdDeviation="0" in="shadowOffsetInner1" result="shadowBlurInner1"></feGaussianBlur>
            <feComposite in="shadowBlurInner1" in2="SourceAlpha" operator="arithmetic" k2="-1" k3="1" result="shadowInnerInner1"></feComposite>
            <feColorMatrix values="0 0 0 0 0.921568627   0 0 0 0 0.525490196   0 0 0 0 0.517647059  0 0 0 0.7 0" in="shadowInnerInner1" type="matrix" result="shadowMatrixInner1"></feColorMatrix>
            <feMerge>
                <feMergeNode in="SourceGraphic"></feMergeNode>
                <feMergeNode in="shadowMatrixInner1"></feMergeNode>
            </feMerge>
        </filter>
        <filter x="-50%" y="-50%" width="200%" height="200%" filterUnits="objectBoundingBox" id="filter-4">
            <feOffset dx="1" dy="3" in="SourceAlpha" result="shadowOffsetInner1"></feOffset>
            <feGaussianBlur stdDeviation="0" in="shadowOffsetInner1" result="shadowBlurInner1"></feGaussianBlur>
            <feComposite in="shadowBlurInner1" in2="SourceAlpha" operator="arithmetic" k2="-1" k3="1" result="shadowInnerInner1"></feComposite>
            <feColorMatrix values="0 0 0 0 0.921568627   0 0 0 0 0.525490196   0 0 0 0 0.517647059  0 0 0 0.7 0" in="shadowInnerInner1" type="matrix" result="shadowMatrixInner1"></feColorMatrix>
            <feMerge>
                <feMergeNode in="SourceGraphic"></feMergeNode>
                <feMergeNode in="shadowMatrixInner1"></feMergeNode>
            </feMerge>
        </filter>
    </defs>
    <g id="Page-1" stroke="none" stroke-width="1" fill="none" fill-rule="evenodd" sketch:type="MSPage">
        <g id="main-pomodoro-copy-2" sketch:type="MSArtboardGroup" transform="translate(0.000000, -269.000000)">
            <g id="Group" sketch:type="MSLayerGroup" transform="translate(-22.000000, 269.000000)">
                <path d="M22,75.3641088 C22,60.0252251 67.6653646,24 90.4980469,24 L213.998047,24 L310.498047,24 C334.332031,24 382,65.3981065 382,80.3641088 L382,399 L22,399 L22,75.3641088 Z" id="Rectangle-14" fill="#B51810" sketch:type="MSShapeGroup"></path>
                <path d="M195.808828,75.2058466 C247.473845,75.2058466 292.796297,54.2803404 288.276979,47.7545391 C274.271412,27.5307931 240.802065,13.2941534 201.741211,13.2941534 C164.418401,13.2941534 132.200572,26.2920377 117.189396,45.0912099 C111.420982,52.3152543 144.143812,75.2058466 195.808828,75.2058466 Z" id="Oval-21" fill="#B91913" sketch:type="MSShapeGroup"></path>
                <path d="M225,34.0517872 C225,34.0517872 244.006986,10.9143198 304.752517,17.0288089 C365.498047,23.1432981 381.652344,64.609375 382,81.1432981 C371.663086,63.4023438 350.662995,42.4567523 318.498047,40.0517876 C286.333099,37.6468228 225,34.0517872 225,34.0517872 Z" id="Path-22" fill="#9D110C" filter="url(#filter-1)" sketch:type="MSShapeGroup"></path>
                <path d="M272.663086,72.9023438 C272.663086,72.9023438 292.544935,49.3974035 323.826172,52.8046875 C355.107409,56.2119715 374.913086,73.4023437 381.7316,84.7825453 C381.413086,68.4023437 366.161557,45.5573587 311.513757,39.2432752 C256.865957,32.9291917 248.163086,49.9023437 248.163086,49.9023437 L272.663086,72.9023438 Z" id="Path-17-Copy-2" fill="#9D110C" filter="url(#filter-2)" sketch:type="MSShapeGroup"></path>
                <path d="M179,34.0517872 C179,34.0517872 159.993014,10.9143198 99.2474834,17.0288089 C38.5019531,23.1432981 22.3476562,64.609375 22,81.1432981 C32.3369141,63.4023438 53.3370052,42.4567523 85.5019531,40.0517876 C117.666901,37.6468228 179,34.0517872 179,34.0517872 Z" id="Path-22-Copy" fill="#9D110C" filter="url(#filter-3)" sketch:type="MSShapeGroup"></path>
                <path d="M131.068514,73.0667855 C131.068514,73.0667855 111.186665,49.5618453 79.9054281,52.9691293 C48.6241913,56.3764132 28.8185141,73.5667855 22,84.946987 C22.3185141,68.5667855 37.5700435,45.7218005 92.2178431,39.407717 C146.865643,33.0936335 155.568514,50.0667855 155.568514,50.0667855 L131.068514,73.0667855 Z" id="Path-17-Copy-3" fill="#9D110C" filter="url(#filter-4)" sketch:type="MSShapeGroup"></path>
                <path d="M201.985609,43.015325 C206.880307,42.9446382 211.599312,43.1199692 216.145298,43.5105389 C234.027366,44.4154277 240.66548,46.0547847 240.96084,48.0729077 C290.872285,62.4634803 312.971218,102.510854 312.971218,102.510854 C312.971218,102.510854 268.902335,61.3028243 202.341227,63.4586674 C202.327754,63.4664007 202.314358,63.4741271 202.30104,63.4818465 C202.195841,63.4779863 202.090697,63.4742346 201.985609,63.4705912 C201.880521,63.4742346 201.775377,63.4779863 201.670178,63.4818465 C201.65686,63.4741271 201.643464,63.4664007 201.629991,63.4586674 C135.068883,61.3028243 91,102.510854 91,102.510854 C91,102.510854 113.098933,62.4634803 163.010378,48.0729077 C163.305738,46.054785 169.94385,44.4154282 187.825912,43.5105393 C192.371906,43.1199692 197.090911,42.9446382 201.985609,43.015325 Z" id="Path-13-Copy" fill="#9D110C" sketch:type="MSShapeGroup"></path>
                <path d="M201.977107,41.6190694 C201.536685,41.6138512 201.09395,41.6102517 200.648899,41.608302 C179.283839,41.5147064 175.951753,42.3308272 179.383532,43.4506038 C148.665559,48.2569555 134.715098,60.7981597 134.715098,60.7981597 C134.715098,60.7981597 161.784458,47.8283888 201.977107,47.8103164 C242.169757,47.8283888 269.239116,60.7981597 269.239116,60.7981597 C269.239116,60.7981597 255.288655,48.2569555 224.570683,43.4506038 C228.002461,42.3308272 224.670376,41.5147064 203.305316,41.608302 C202.860265,41.6102517 202.41753,41.6138512 201.977107,41.6190694 Z" id="Path-13-Copy-3" fill="#E57373" sketch:type="MSShapeGroup"></path>
                <path d="M97.4931641,44.2451172 C100.992608,43.9937235 106.8432,46.5172126 111.493164,46.7451172 C130.530748,47.6781897 136.441406,80 136.441406,80 C136.441406,80 140.163086,77.9023438 148.663086,69.4023438 C157.163086,60.9023438 163.604198,51.2773438 158.604198,44.2773438 C175.354198,35.2773438 211.204546,39.2606539 211.204546,39.2606539 C211.204546,39.2606539 185.55866,31.3306922 164.456369,33.3337341 C143.354077,35.3367761 150.334707,36.107876 140.243164,37.9951172 C134.993164,26.2451172 154.243164,18.9951172 154.243164,18.9951172 C154.243164,18.9951172 150.424069,21.0353639 132.797101,24.420426 C115.170133,27.8054881 100.743164,34.2451172 100.743164,34.2451172 C100.743164,34.2451172 86.6654085,45.0229632 97.4931641,44.2451172 Z" id="Path-11-Copy-4" fill="#0F4213" sketch:type="MSShapeGroup" transform="translate(152.302099, 49.497559) scale(-1, 1) translate(-152.302099, -49.497559) "></path>
                <path d="M197.493164,44.2451172 C200.992608,43.9937235 206.8432,46.5172126 211.493164,46.7451172 C230.530748,47.6781897 236.441406,80 236.441406,80 C236.441406,80 240.163086,77.9023438 248.663086,69.4023438 C257.163086,60.9023438 263.604198,51.2773438 258.604198,44.2773438 C275.354198,35.2773438 311.204546,39.2606539 311.204546,39.2606539 C311.204546,39.2606539 285.55866,31.3306922 264.456369,33.3337341 C243.354077,35.3367761 250.334707,36.107876 240.243164,37.9951172 C234.993164,26.2451172 254.243164,18.9951172 254.243164,18.9951172 C254.243164,18.9951172 250.424069,21.0353639 232.797101,24.420426 C215.170133,27.8054881 200.743164,34.2451172 200.743164,34.2451172 C200.743164,34.2451172 186.665409,45.0229632 197.493164,44.2451172 Z" id="Path-11-Copy-5" fill="#0F4213" sketch:type="MSShapeGroup"></path>
                <path d="M202.402748,43.0357057 C202.320628,43.0413415 202.238774,43.0470904 202.157183,43.0529517 C200.919215,43.141885 199.953648,43.0724392 199.214375,42.8796674 C196.58956,42.800287 193.7092,42.8281999 190.514643,42.9847719 C171.477059,43.9178444 168.364089,80 168.364089,80 C168.364089,80 137.251679,49.5756759 153.790394,43.2328997 C144.40684,39.5698691 142.660176,39.1537541 130.097992,37.5912162 C117.535807,36.0286782 95.6009492,39.2606539 95.6009492,39.2606539 C95.6009492,39.2606539 119.246835,26.3306922 140.349126,28.3337341 C161.451418,30.3367761 157.947792,33.3435038 168.039334,35.230745 C172.26973,24.9041458 150.055477,19.1178067 150.055477,19.1178067 C150.055477,19.1178067 154.381426,11.0353639 172.008394,14.420426 C186.757025,17.2527356 198.84747,27.9974824 202.402748,31.4310164 C205.958025,27.9974824 218.04847,17.2527356 232.797101,14.420426 C250.424069,11.0353639 254.750018,19.1178067 254.750018,19.1178067 C254.750018,19.1178067 232.535765,24.9041458 236.766161,35.230745 C246.857703,33.3435038 255.163086,27.6523437 272.913086,28.1523438 C290.663086,28.6523438 311.913086,39.1523438 311.913086,39.1523438 C311.913086,39.1523438 281.913086,36.4023438 273.163086,37.4023438 C264.413086,38.4023438 260.398655,39.5698691 251.015101,43.2328997 C267.553816,49.5756759 236.441406,80 236.441406,80 C236.441406,80 233.328436,43.9178444 214.290852,42.9847719 C211.096295,42.8281999 208.215935,42.800287 205.59112,42.8796674 C204.851847,43.0724392 203.88628,43.141885 202.648312,43.0529517 C202.566721,43.0470904 202.484867,43.0413415 202.402748,43.0357057 Z" id="Path-11-Copy" fill="#2A7E2F" sketch:type="MSShapeGroup"></path>
                <g id="Path-12-+-Path-12-Copy" transform="translate(186.000000, 0.000000)" sketch:type="MSShapeGroup">
                    <path d="M0,36.287433 C0,36.287433 2.2037037,15.8112425 4.72222222,8.19219488 C7.24074074,0.57314726 15.1111111,2.00171869 19.2037037,2.00171869 C23.2962963,2.00171869 29.9074074,2.00171858 31.1666667,9.14457583 C32.4259259,16.2874331 33.6851852,35.8112425 33.6851852,35.8112425 C33.6851852,35.8112425 28.0185185,38.6683834 19.5185185,38.6683854 C11.0185185,38.6683873 0,36.287433 0,36.287433 Z" id="Path-12" fill="#26392F"></path>
                    <path d="M19.2037037,2.00171869 C20.6412597,2.00171869 22.389556,2.00171868 24.1074988,2.31128285 C27.2803847,2.88302005 30.8284135,37.2516306 26.1290605,38.086983 C24.209844,38.4281411 21.983302,38.6683848 19.5185185,38.6683854 C18.1561059,38.6683857 18.2253414,2.00171869 19.2037037,2.00171869 Z" id="Path-12-Copy" fill="#2A7E2F"></path>
                </g>
            </g>
            <g id="status-bar-+-navbar-copy" sketch:type="MSLayerGroup"></g>
        </g>
    </g>
</svg>